<?xml version="1.0" encoding="utf-8"?>
<!-- Generator: Adobe Illustrator 18.1.1, SVG Export Plug-In . SVG Version: 6.00 Build 0)  -->
<svg version="1.1" id="Calque_2" xmlns="http://www.w3.org/2000/svg" xmlns:xlink="http://www.w3.org/1999/xlink" x="0px" y="0px"
	 viewBox="0 0 418 280" enable-background="new 0 0 418 280" xml:space="preserve">
<path fill="#FFFFFF" d="M390.8,130.5c-0.6-0.7-1.6-1.1-2.6-1.1l-144.3,0c-1.8,0-3.3,1.5-3.3,3.3v14.5c0,1.8,1.5,3.3,3.3,3.3h94
	l-86.8,70.1L151.4,140l122.4-98.9c1.4-1.1,1.7-3.3,0.4-4.8c-0.6-0.7-1.6-1.1-2.6-1.1L29,35.2c-2.5,0-3.6,3.1-1.6,4.6l18.6,15
	c1.2,1,2.7,1.5,4.3,1.5h171.1L121,137.4c-0.8,0.6-1.2,1.6-1.2,2.6s0.5,1.9,1.2,2.6l100.4,81.1H50.1c-1.6,0-3.1,0.5-4.3,1.5
	l-18.5,14.9c-1.9,1.5-0.8,4.6,1.6,4.6h224.9c0.8,0,1.5-0.3,2.1-0.7l134.6-108.8C391.9,134.2,392.2,132,390.8,130.5z"/>
</svg>
