<?xml version="1.0" encoding="utf-8"?>
<!-- Generator: Adobe Illustrator 18.1.1, SVG Export Plug-In . SVG Version: 6.00 Build 0)  -->
<svg version="1.1" id="Calque_2" xmlns="http://www.w3.org/2000/svg" xmlns:xlink="http://www.w3.org/1999/xlink" x="0px" y="0px"
	 viewBox="0 0 418 280" enable-background="new 0 0 418 280" xml:space="preserve">
<path fill="#FFFFFF" d="M400.7,126.4c-0.5-1.4-1.8-2.3-3.3-2.3H244.8c-1.9,0-3.5,1.6-3.5,3.5v15.3c0,1.9,1.6,3.5,3.5,3.5h99.4
	l-91.7,74.1l-105.5-85.3L276.3,30.6c1.2-0.9,1.6-2.5,1.1-3.9c-0.5-1.4-1.8-2.3-3.3-2.3H40.2c-1.9,0-3.5,1.6-3.5,3.5v15.3
	c0,1.9,1.6,3.5,3.5,3.5h180.7l-106.1,85.8c-0.8,0.7-1.3,1.7-1.3,2.7s0.5,2.1,1.3,2.7l106.1,85.8H40.2c-1.9,0-3.5,1.6-3.5,3.5v15.3
	c0,1.9,1.6,3.5,3.5,3.5h215c0.8,0,1.6-0.3,2.2-0.8l142.3-115C400.8,129.3,401.2,127.8,400.7,126.4z"/>
</svg>
